<?xml version="1.0" encoding="UTF-8" standalone="no"?>
<svg
   xmlns:dc="http://purl.org/dc/elements/1.1/"
   xmlns:cc="http://creativecommons.org/ns#"
   xmlns:rdf="http://www.w3.org/1999/02/22-rdf-syntax-ns#"
   xmlns:svg="http://www.w3.org/2000/svg"
   xmlns="http://www.w3.org/2000/svg"
   xmlns:sodipodi="http://sodipodi.sourceforge.net/DTD/sodipodi-0.dtd"
   xmlns:inkscape="http://www.inkscape.org/namespaces/inkscape"
   viewBox="0 0 52 19.812001"
   xml:space="preserve"
   version="1.1"
   id="svg267"
   sodipodi:docname="cartao-elo.svg"
   width="52"
   height="19.812"
   inkscape:version="0.92.5 (2060ec1f9f, 2020-04-08)"><metadata
     id="metadata273"><rdf:RDF><cc:Work
         rdf:about=""><dc:format>image/svg+xml</dc:format><dc:type
           rdf:resource="http://purl.org/dc/dcmitype/StillImage" /><dc:title></dc:title></cc:Work></rdf:RDF></metadata><defs
     id="defs271" /><sodipodi:namedview
     pagecolor="#ffffff"
     bordercolor="#666666"
     borderopacity="1"
     objecttolerance="10"
     gridtolerance="10"
     guidetolerance="10"
     inkscape:pageopacity="0"
     inkscape:pageshadow="2"
     inkscape:window-width="1440"
     inkscape:window-height="833"
     id="namedview269"
     showgrid="false"
     fit-margin-top="0"
     fit-margin-left="0"
     fit-margin-right="0"
     fit-margin-bottom="0"
     inkscape:zoom="4.9780317"
     inkscape:cx="81.247725"
     inkscape:cy="9.5669567"
     inkscape:window-x="0"
     inkscape:window-y="36"
     inkscape:window-maximized="1"
     inkscape:current-layer="svg267" /><path
     d="M 8.1172,4.3368 C 8.7204,4.1392 9.3496,4.0404 9.984,4.0404 c 2.8548,0 5.2364,1.9864 5.7772,4.6228 l 4.0404,-0.806 C 18.8812,3.3748 14.8356,0 9.9892,0 8.8764,0 7.8104,0.1768 6.812,0.5044 Z"
     style="clip-rule:evenodd;fill:#ffca05;fill-rule:evenodd;stroke-width:0.052"
     id="path259"
     inkscape:connector-curvature="0" /><path
     d="M 3.4216,17.3316 6.188,14.274 C 4.9504,13.2028 4.1756,11.6428 4.1756,9.9008 c 0,-1.742 0.78,-3.302 2.0124,-4.368 L 3.4216,2.4752 C 1.326,4.2952 0,6.9472 0,9.906 c 0,2.9536 1.326,5.6108 3.4216,7.4256"
     style="clip-rule:evenodd;fill:#00a4df;fill-rule:evenodd;stroke-width:0.052"
     id="path261"
     inkscape:connector-curvature="0" /><path
     d="m 15.7664,11.1436 c -0.546,2.6364 -2.9276,4.6228 -5.7772,4.6228 -0.6344,0 -1.2688,-0.0988 -1.872,-0.2964 l -1.3104,3.8376 c 0.9984,0.3276 2.0696,0.5044 3.1824,0.5044 4.8464,0 8.8868,-3.3696 9.8176,-7.852 z"
     style="clip-rule:evenodd;fill:#ee4123;fill-rule:evenodd;stroke-width:0.052"
     id="path263"
     inkscape:connector-curvature="0" /><path
     d="m 31.252,13.156 -0.1196,-0.0728 c -0.3328,0.5356 -0.8424,0.9724 -1.4924,1.2532 -1.2324,0.5408 -2.3764,0.4004 -3.198,-0.3224 l -0.0728,0.1144 H 26.364 l -1.3988,2.106 c 0.3484,0.2444 0.7228,0.4472 1.1128,0.6136 1.5496,0.6448 3.1304,0.6188 4.6904,-0.0676 1.1284,-0.4888 2.0124,-1.2428 2.6208,-2.1892 z M 26.8788,7.9612 C 25.5736,8.5228 24.9028,9.75 25.0432,11.1904 L 30.5656,8.8036 C 29.614,7.6856 28.3816,7.3164 26.8788,7.9612 Z m -3.666,6.4168 c -0.156,-0.26 -0.2964,-0.5304 -0.4212,-0.8112 -0.6396,-1.4872 -0.6656,-3.0212 -0.13,-4.498 0.5928,-1.6172 1.7212,-2.86 3.1824,-3.4892 1.8356,-0.7956 3.8688,-0.6396 5.6264,0.4108 1.118,0.6448 1.9084,1.638 2.5116,3.0472 0.078,0.182 0.1456,0.3744 0.208,0.5356 z m 14.82,-11.9028 v 11.7052 l 1.8148,0.7384 -1.0296,2.4128 -2.002,-0.832 c -0.4472,-0.1976 -0.754,-0.494 -0.988,-0.832 -0.2236,-0.3432 -0.3848,-0.8164 -0.3848,-1.4508 V 2.4752 Z m 4.6956,8.7256 c 0,0.9568 0.4056,1.8668 1.1232,2.496 l -1.8564,2.0852 c -1.3104,-1.1648 -2.054,-2.834 -2.0488,-4.5812 0,-1.7524 0.7488,-3.4164 2.0592,-4.576 l 1.8564,2.08 c -0.7228,0.6292 -1.1336,1.5392 -1.1336,2.496 z m 3.302,3.3228 c 1.5964,0 2.9276,-1.1336 3.2396,-2.6468 L 52,12.4384 c -0.5668,2.7872 -3.0264,4.888 -5.9696,4.8828 -0.6552,0 -1.3104,-0.1092 -1.9344,-0.3172 l 0.8892,-2.652 c 0.3276,0.1092 0.676,0.1716 1.0452,0.1716 z m 0.0052,-9.438 c 2.9432,0 5.4028,2.106 5.9644,4.8984 l -2.73,0.5564 C 48.9632,8.996 47.606,7.8832 46.0356,7.8832 c -0.3536,0 -0.7124,0.0572 -1.0452,0.1716 l -0.8788,-2.652 c 0.6188,-0.2132 1.2688,-0.3172 1.924,-0.3172 z"
     style="clip-rule:evenodd;fill-rule:evenodd;stroke-width:0.052;fill:#ffffff"
     id="path265"
     inkscape:connector-curvature="0" /></svg>