<?xml version="1.0" encoding="UTF-8" standalone="no"?>
<!-- Created with Inkscape (http://www.inkscape.org/) -->

<svg
   xmlns:dc="http://purl.org/dc/elements/1.1/"
   xmlns:cc="http://creativecommons.org/ns#"
   xmlns:rdf="http://www.w3.org/1999/02/22-rdf-syntax-ns#"
   xmlns:svg="http://www.w3.org/2000/svg"
   xmlns="http://www.w3.org/2000/svg"
   xmlns:sodipodi="http://sodipodi.sourceforge.net/DTD/sodipodi-0.dtd"
   xmlns:inkscape="http://www.inkscape.org/namespaces/inkscape"
   id="svg2985"
   version="1.1"
   inkscape:version="0.92.5 (2060ec1f9f, 2020-04-08)"
   width="50"
   height="21.764723"
   sodipodi:docname="hipercard.svg">
  <metadata
     id="metadata2991">
    <rdf:RDF>
      <cc:Work
         rdf:about="">
        <dc:format>image/svg+xml</dc:format>
        <dc:type
           rdf:resource="http://purl.org/dc/dcmitype/StillImage" />
        <dc:title />
      </cc:Work>
    </rdf:RDF>
  </metadata>
  <defs
     id="defs2989" />
  <sodipodi:namedview
     pagecolor="#ffffff"
     bordercolor="#666666"
     borderopacity="1"
     objecttolerance="10"
     gridtolerance="10"
     guidetolerance="10"
     inkscape:pageopacity="0"
     inkscape:pageshadow="2"
     inkscape:window-width="1440"
     inkscape:window-height="833"
     id="namedview2987"
     showgrid="false"
     inkscape:zoom="10.86116"
     inkscape:cx="44.281959"
     inkscape:cy="23.679843"
     inkscape:window-x="0"
     inkscape:window-y="36"
     inkscape:window-maximized="1"
     inkscape:current-layer="layer1"
     fit-margin-top="0"
     fit-margin-left="0"
     fit-margin-right="0"
     fit-margin-bottom="0" />
  <g
     inkscape:groupmode="layer"
     id="layer2"
     inkscape:label="Layer 2">
    <rect
       style="fill:#ffffff;fill-opacity:1;stroke-width:1.00999475"
       id="rect18"
       width="42.076534"
       height="11.969255"
       x="4.1432037"
       y="5.37605" />
  </g>
  <g
     inkscape:groupmode="layer"
     id="layer1"
     inkscape:label="Layer 1">
    <path
       inkscape:connector-curvature="0"
       id="path2997"
       d="m 20.850427,21.77366 -20.8859976,0.0077 v -0.05029 c 0,-0.0276 0.03331,-0.206895 0.07402,-0.398337 0.04071,-0.191442 0.10401,-0.495952 0.140658,-0.676683 0.03664,-0.18074 0.0993,-0.487875 0.139239,-0.682509 0.03993,-0.194645 0.106284,-0.518837 0.147444,-0.720424 0.04116,-0.201596 0.10564,-0.520096 0.143286,-0.707788 0.03764,-0.187692 0.100498,-0.494818 0.139674,-0.68251 0.03917,-0.187692 0.105961,-0.511885 0.14841697,-0.720423 0.04245,-0.208546 0.10699303,-0.527046 0.14341603,-0.707787 0.03642,-0.18074 0.09431,-0.459423 0.128632,-0.619307 0.03433,-0.159885 0.07808,-0.37601 0.09723,-0.480289 0.01915,-0.104269 0.08114,-0.411394 0.137755,-0.682509 0.05661,-0.271106 0.119106,-0.578231 0.138881,-0.682501 0.01978,-0.104278 0.08255,-0.411403 0.139499,-0.682509 0.05695,-0.271106 0.119516,-0.578241 0.13903,-0.68251 0.01952,-0.104269 0.08242,-0.411404 0.139803,-0.68251 0.05738,-0.271105 0.119302,-0.572548 0.137613,-0.669865 0.01831,-0.09732 0.06846,-0.347577 0.111451,-0.556115 0.04299,-0.208549 0.12433,-0.600991 0.180759,-0.8720968 0.05643,-0.271105 0.15295,-0.743173 0.214487,-1.049038 0.06154,-0.305866 0.135072,-0.669866 0.163412,-0.808895 0.02834,-0.139029 0.07959,-0.389288 0.113887,-0.556125 0.0343,-0.166827 0.09658,-0.468269 0.138398,-0.669865 0.04183,-0.201596 0.109866,-0.531471 0.151211,-0.733068 0.04135,-0.201586 0.105058,-0.514403 0.14158,-0.695144 0.03652,-0.18074 0.09886,-0.482173 0.138524,-0.669865 0.03966,-0.187693 0.107891,-0.517568 0.151614,-0.733068 0.04372,-0.21549 0.116969,-0.545375 0.162766,-0.733057 0.0458,-0.187693 0.110546,-0.415193 0.143883,-0.505568 0.03334,-0.09039 0.125379,-0.286269 0.204535,-0.435327 l 0.143922,-0.271027 0.130834,-0.171346 c 0.07196,-0.09423 0.200433,-0.243154 0.285498,-0.330923 0.08507,-0.08779 0.228602,-0.219847 0.318971,-0.293491 0.09036,-0.07365 0.221183,-0.17304798 0.290698,-0.22088398 0.06952,-0.04779 0.206017,-0.131568 0.303337,-0.186087 0.09732,-0.05452 0.233822,-0.125913 0.303336,-0.158654 0.06952,-0.03269 0.211704,-0.0925 0.315976,-0.132779 0.104272,-0.04029 0.303337,-0.107817 0.442366,-0.150067 0.13903,-0.04221 0.400003,-0.105942 0.579939,-0.141529 0.179938,-0.03558 0.464316,-0.08308 0.631952,-0.105615 l 0.304793,-0.04096 20.8986366,-0.0077 20.898638,-0.0077 v 0.05029 c 0,0.0276 -0.03353,0.206865 -0.07451,0.398308 -0.04098,0.191442 -0.109456,0.518702 -0.152166,0.72723998 -0.04271,0.208548 -0.105056,0.50999 -0.138541,0.669875 -0.03349,0.159885 -0.09688,0.46701 -0.140877,0.68251 -0.044,0.21549 -0.111687,0.545365 -0.15042,0.733057 -0.03874,0.187693 -0.101444,0.494818 -0.13935,0.68251 -0.03791,0.187692 -0.101,0.494817 -0.140198,0.68251 -0.0392,0.187692 -0.09998,0.483442 -0.135058,0.657231 -0.03508,0.173779 -0.09859,0.486596 -0.141122,0.695144 -0.04253,0.208548 -0.110857,0.538423 -0.15183,0.733067 -0.04097,0.194635 -0.103388,0.496077 -0.138701,0.669866 -0.03532,0.173788 -0.09887,0.486606 -0.141226,0.695144 -0.04237,0.208548 -0.110531,0.538423 -0.151492,0.733068 -0.04096,0.194635 -0.102004,0.490394 -0.135659,0.657231 -0.03365,0.166836 -0.09697,0.479644 -0.140714,0.6951438 -0.04374,0.21549 -0.107494,0.528308 -0.14168,0.695144 -0.03418,0.166837 -0.09526,0.462587 -0.135711,0.657231 -0.04045,0.194644 -0.109603,0.530212 -0.153664,0.745702 -0.04407,0.2155 -0.107137,0.522625 -0.140165,0.68251 -0.03303,0.159884 -0.09485,0.461327 -0.137361,0.669865 -0.04252,0.208548 -0.110175,0.538423 -0.150342,0.733068 -0.04016,0.194644 -0.103159,0.501769 -0.139986,0.682509 -0.03683,0.180731 -0.100846,0.493548 -0.142261,0.695145 -0.04141,0.201596 -0.109057,0.531471 -0.150318,0.733067 -0.04126,0.201587 -0.103092,0.503029 -0.137409,0.669865 -0.03432,0.166837 -0.09705,0.473962 -0.139401,0.68251 -0.04236,0.208539 -0.111257,0.537173 -0.153114,0.730298 l -0.07611,0.351125 -0.09069,0.242914 c -0.04989,0.133596 -0.124862,0.311154 -0.166621,0.394567 -0.04176,0.08346 -0.126815,0.230596 -0.189017,0.327058 -0.0622,0.09646 -0.148903,0.220067 -0.192674,0.274673 -0.04377,0.05462 -0.175515,0.195577 -0.292765,0.313269 l -0.21318,0.213991 -0.205145,0.145798 c -0.112831,0.08019 -0.234365,0.161731 -0.27008,0.181202 -0.03571,0.01952 -0.171662,0.08885 -0.302101,0.154192 -0.130438,0.06529 -0.314699,0.148462 -0.40947,0.18474 -0.09477,0.03625 -0.282459,0.09805 -0.417087,0.13726 -0.134629,0.03923 -0.278906,0.07779 -0.320615,0.08577 -0.04171,0.0077 -0.186499,0.03798 -0.321754,0.06654 -0.135255,0.02865 -0.408258,0.07144 -0.606674,0.0951 l -0.360753,0.04298 z m -7.430875,-5.402482 h 0.543514 l 0.01535,-0.04 c 0.0085,-0.02202 0.01535,-0.07365 0.01535,-0.114894 0,-0.04115 0.01791,-0.19099 0.03981,-0.332865 0.02189,-0.141875 0.07329,-0.468395 0.114193,-0.725596 0.04091,-0.257202 0.102166,-0.643962 0.136126,-0.859452 0.03396,-0.215501 0.0754,-0.491347 0.0921,-0.613001 0.01669,-0.121644 0.03708,-0.221182 0.04529,-0.221182 0.0082,0 0.04335,0.05375 0.07809,0.119461 l 0.06315,0.119452 0.140133,0.141193 0.140133,0.141182 0.172491,0.06904 0.17249,0.06904 0.205577,0.02664 0.205577,0.02663 0.260949,-0.01606 0.26095,-0.01606 0.282529,-0.07308 0.282529,-0.07308 0.151668,-0.06923 c 0.08341,-0.03808 0.231295,-0.121086 0.328615,-0.18448 l 0.176946,-0.11525 0.164984,-0.164895 c 0.09074,-0.09067 0.21871,-0.236115 0.284378,-0.323163 0.06566,-0.08702 0.119395,-0.164625 0.119395,-0.172394 0,-0.0077 0.03226,-0.06164 0.07169,-0.119779 0.03943,-0.05817 0.120134,-0.219423 0.179336,-0.358452 0.0592,-0.139029 0.151726,-0.389279 0.205607,-0.556116 l 0.09797,-0.303336 0.05064,-0.26276 c 0.02786,-0.144509 0.06368,-0.383384 0.07963,-0.530836 l 0.02898,-0.268087 -0.01674,-0.2275 -0.01674,-0.2275 -0.05275,-0.2275098 -0.05275,-0.2275 -0.08538,-0.170336 -0.08538,-0.170327 -0.164959,-0.174831 -0.164932,-0.174836 -0.19511,-0.100846 -0.195111,-0.100856 -0.214863,-0.05144 -0.214864,-0.05144 -0.214863,-0.01577 -0.214864,-0.01577 -0.239349,0.0275 -0.239349,0.0275 -0.195358,0.0499 -0.195356,0.0499 -0.169712,0.07856 c -0.09335,0.04317 -0.229161,0.116577 -0.301821,0.163058 -0.07266,0.04644 -0.147615,0.09996 -0.166564,0.118836 -0.01895,0.01885 -0.06432,0.05385 -0.100813,0.07769 l -0.06637,0.04336 0.0464,-0.222029 c 0.02552,-0.122115 0.04686,-0.23624 0.0474,-0.253615 l 9.62e-4,-0.03164 h -0.463435 -0.463435 l -0.08126,0.511874 c -0.04469,0.281539 -0.115263,0.716635 -0.156818,0.9668848 -0.04156,0.25026 -0.10422,0.625635 -0.139254,0.834183 -0.03504,0.208538 -0.09753,0.57823 -0.138869,0.821529 -0.04135,0.243307 -0.10968,0.630057 -0.151857,0.859461 -0.04217,0.229394 -0.103965,0.564962 -0.137307,0.745702 -0.03335,0.180731 -0.0961,0.521991 -0.139454,0.758337 -0.04336,0.236356 -0.113033,0.611731 -0.154836,0.834183 -0.0418,0.222442 -0.10983,0.575067 -0.151173,0.783615 -0.04135,0.208548 -0.08138,0.404769 -0.08899,0.436048 l -0.01382,0.05692 h 0.543514 z m 2.339847,-2.922615 -0.211044,0.01269 -0.137951,-0.02433 -0.137951,-0.02433 -0.140108,-0.06394 -0.140108,-0.06394 -0.09788,-0.09346 -0.09788,-0.09346 -0.0565,-0.126394 c -0.03108,-0.06952 -0.07099,-0.187596 -0.0887,-0.262413 l -0.0322,-0.136029 0.0129,-0.217866 0.0129,-0.217865 0.06513,-0.34125 c 0.03583,-0.187692 0.100145,-0.540317 0.142936,-0.783625 0.04279,-0.243298 0.107582,-0.599789 0.143976,-0.792202 l 0.06617,-0.3498368 0.144906,-0.120596 c 0.0797,-0.06635 0.205946,-0.155211 0.28055,-0.197538 l 0.135644,-0.07692 0.176946,-0.05481 0.176947,-0.05481 0.227502,-0.01337 0.227503,-0.01337 0.185245,0.03952 0.185243,0.03952 0.130732,0.06019 0.130731,0.06019 0.109624,0.110221 0.109624,0.110211 0.05915,0.116702 c 0.03253,0.06423 0.07821,0.1898368 0.101528,0.2792208 l 0.04238,0.1625 -0.01298,0.480279 -0.01298,0.480289 -0.06492,0.283884 c -0.0357,0.156135 -0.103676,0.39501 -0.151046,0.530837 l -0.08612,0.246952 -0.105475,0.199913 c -0.05801,0.109952 -0.147466,0.258529 -0.198789,0.330183 -0.05133,0.07163 -0.133129,0.164462 -0.18179,0.20625 -0.04866,0.04183 -0.130152,0.107096 -0.181094,0.145125 l -0.09263,0.06914 -0.214534,0.07298 -0.214535,0.07298 z m 5.249017,0.694923 0.278058,0.0029 0.278059,-0.02538 c 0.152932,-0.01394 0.403185,-0.04298 0.556117,-0.06452 0.152932,-0.02154 0.417123,-0.06981 0.587089,-0.107164 l 0.309031,-0.06798 0.01539,-0.113923 c 0.0085,-0.06269 0.04317,-0.249163 0.07712,-0.414481 l 0.06173,-0.300567 -0.01362,-0.01365 -0.01363,-0.01365 -0.09447,0.04567 c -0.05196,0.0251 -0.213803,0.0849 -0.359648,0.133028 l -0.265173,0.0874 -0.278306,0.05394 -0.278305,0.05394 -0.442366,8.56e-4 -0.442365,8.65e-4 -0.15167,-0.04846 c -0.08341,-0.02663 -0.206108,-0.07538 -0.272646,-0.108317 l -0.120979,-0.0599 -0.09985,-0.09019 -0.09985,-0.09019 -0.0779,-0.136164 -0.0779,-0.136163 -0.04885,-0.170798 -0.04885,-0.170789 -3.49e-4,-0.316058 -3.49e-4,-0.316057 0.04337,-0.281952 0.04337,-0.281962 0.380393,-0.01779 0.380395,-0.01779 1.406123,0.0087 1.406122,0.0087 0.04245,-0.180096 c 0.02336,-0.09906 0.05905,-0.303808 0.07934,-0.45501 l 0.03687,-0.274904 7.78e-4,-0.23125 7.79e-4,-0.2312498 -0.04004,-0.172634 -0.04004,-0.172635 -0.0662,-0.114317 c -0.03641,-0.06288 -0.100563,-0.153991 -0.142564,-0.202481 -0.042,-0.04846 -0.116993,-0.116856 -0.166651,-0.151923 -0.04965,-0.0351 -0.147163,-0.09404 -0.216677,-0.130962 l -0.126391,-0.06721 -0.220833,-0.05317 -0.220835,-0.05317 -0.272087,-0.02606 -0.272089,-0.02606 -0.252781,0.01644 -0.252781,0.01644 -0.303336,0.05827 -0.303337,0.05827 -0.189585,0.07577 c -0.104272,0.04173 -0.263524,0.117712 -0.353893,0.168943 -0.09037,0.05125 -0.215496,0.134625 -0.278058,0.185327 -0.06257,0.05067 -0.170886,0.14924 -0.240716,0.219009 -0.06983,0.06971 -0.173123,0.195087 -0.229539,0.27851 -0.05641,0.08346 -0.142905,0.231288 -0.192195,0.3286148 -0.04929,0.09732 -0.113519,0.233818 -0.142728,0.303337 -0.02921,0.06952 -0.08229,0.211702 -0.117956,0.315971 -0.03566,0.104269 -0.09173,0.303337 -0.124582,0.442366 -0.03286,0.139028 -0.07787,0.367894 -0.100044,0.508577 l -0.04031,0.255807 3.74e-4,0.376154 3.74e-4,0.376164 0.03842,0.164307 c 0.02114,0.09039 0.06154,0.226866 0.08979,0.303337 0.02825,0.07644 0.08049,0.190211 0.116087,0.252779 0.0356,0.0626 0.111623,0.163288 0.168943,0.223846 0.05732,0.06058 0.161094,0.152433 0.230608,0.204183 0.06951,0.05173 0.193268,0.124529 0.275007,0.16174 l 0.148616,0.06769 0.207214,0.0501 c 0.113968,0.0276 0.285968,0.06019 0.382223,0.0725 0.09626,0.01231 0.300136,0.02385 0.453068,0.02567 z m 0.476139,-3.560981 c -0.699819,0 -1.272398,-0.0048 -1.272398,-0.01115 0,-0.0058 0.02986,-0.09433 0.06636,-0.195904 0.03649,-0.101625 0.100587,-0.252885 0.14243,-0.336144 l 0.07608,-0.1513658 0.167227,-0.166307 0.167226,-0.166308 0.164308,-0.07856 c 0.09036,-0.04317 0.209808,-0.09029 0.26542,-0.104557 0.05562,-0.01433 0.214864,-0.03327 0.353893,-0.04212 l 0.25278,-0.01615 0.194119,0.0249 0.194118,0.0249 0.14107,0.06461 0.141069,0.06462 0.07738,0.08346 c 0.04256,0.04587 0.09328,0.113472 0.112713,0.150173 l 0.03533,0.06673 0.02333,0.148125 0.02333,0.1481248 -0.02668,0.246462 -0.02668,0.246461 z m 7.562438,3.561115 0.278216,0.0029 0.315819,-0.0374 c 0.173703,-0.02058 0.404924,-0.05471 0.513827,-0.07577 0.108905,-0.02106 0.285219,-0.06298 0.39181,-0.09317 0.106592,-0.0301 0.203028,-0.06269 0.2143,-0.07231 0.01127,-0.0097 0.04139,-0.124394 0.06693,-0.254932 0.02554,-0.130539 0.05771,-0.305597 0.0715,-0.38901 0.01378,-0.08346 0.0209,-0.156135 0.01583,-0.161596 -0.0051,-0.0058 -0.02372,0.0019 -0.04143,0.01567 -0.01771,0.01404 -0.141745,0.06625 -0.27562,0.115981 l -0.243407,0.09038 -0.346621,0.06712 -0.346618,0.06711 -0.294704,-0.0101 -0.294704,-0.0101 -0.167391,-0.05808 -0.167394,-0.05808 -0.129348,-0.113144 -0.12935,-0.113154 -0.0858,-0.15627 -0.0858,-0.156269 -0.04087,-0.209058 -0.04086,-0.209057 2.53e-4,-0.271221 2.52e-4,-0.271231 0.04966,-0.328616 0.04966,-0.328615 0.05254,-0.176942 c 0.0289,-0.09732 0.0616,-0.211077 0.07266,-0.252779 0.01107,-0.04173 0.05742,-0.161154 0.103019,-0.265423 0.0456,-0.10427 0.126928,-0.265433 0.180745,-0.358125 l 0.09784,-0.1685478 0.120174,-0.12451 0.120172,-0.124519 0.127263,-0.07894 0.127264,-0.07894 0.163433,-0.05039 c 0.08989,-0.02769 0.248749,-0.06365 0.353021,-0.0799 l 0.189586,-0.02952 0.278058,0.01394 0.278059,0.01394 0.328615,0.06577 0.328615,0.06577 0.133658,0.04981 c 0.07351,0.0274 0.13687,0.04981 0.140793,0.04981 0.0039,0 0.02156,-0.09385 0.03918,-0.208548 0.01762,-0.114693 0.04899,-0.303404 0.0697,-0.419346 0.02071,-0.115943 0.03267,-0.215789 0.02658,-0.221895 -0.0061,-0.0058 -0.104876,-0.02173 -0.219504,-0.03481 -0.114631,-0.01308 -0.426181,-0.03625 -0.692333,-0.05154 l -0.483916,-0.02779 -0.341253,0.02615 -0.341254,0.02615 -0.252781,0.05317 -0.252781,0.05308 -0.162793,0.0651 c -0.08954,0.03577 -0.22068,0.100433 -0.291431,0.143606 -0.07075,0.04317 -0.160812,0.10125 -0.200134,0.129058 -0.03933,0.02779 -0.158625,0.136288 -0.265114,0.241077 l -0.193617,0.190529 -0.108076,0.158336 c -0.05944,0.08712 -0.162271,0.268654 -0.228506,0.4034998 l -0.12043,0.245183 -0.0923,0.265414 c -0.05077,0.14598 -0.121648,0.384865 -0.157515,0.530846 l -0.06521,0.265413 -0.02367,0.240145 -0.02367,0.240144 2.53e-4,0.315971 2.53e-4,0.315981 0.02388,0.183808 0.02388,0.183817 0.07571,0.189086 0.07571,0.189087 0.08745,0.136712 0.08744,0.136701 0.139061,0.136856 0.139059,0.136856 0.147088,0.07779 0.147088,0.07769 0.193261,0.05365 c 0.106291,0.02952 0.259856,0.06336 0.341254,0.07529 0.08139,0.01192 0.273189,0.02298 0.426205,0.02471 z m 4.158087,-0.0096 0.341254,-0.0098 0.214864,-0.055 0.214863,-0.055 0.139029,-0.06577 c 0.07646,-0.03615 0.201592,-0.107509 0.278059,-0.158586 0.07646,-0.05106 0.194826,-0.148154 0.263018,-0.21575 0.06819,-0.0676 0.169323,-0.182923 0.224727,-0.256279 0.0554,-0.07337 0.104075,-0.130039 0.108155,-0.125962 0.004,0.0038 -0.0087,0.120981 -0.02833,0.259769 -0.01966,0.138799 -0.03597,0.323452 -0.03624,0.410347 l -4.79e-4,0.15798 h 0.46393 0.463931 l 0.01418,-0.360211 0.01418,-0.360212 0.0662,-0.467644 c 0.03641,-0.257202 0.09522,-0.638269 0.130682,-0.846808 0.03546,-0.208548 0.09711,-0.561173 0.13699,-0.783625 0.03988,-0.222442 0.103058,-0.569385 0.140396,-0.770981 l 0.06789,-0.366529 0.0023,-0.3166048 0.0023,-0.316597 -0.07159,-0.146327 -0.07159,-0.146326 -0.09708,-0.09317 -0.09708,-0.09317 -0.159381,-0.08077 -0.159381,-0.08077 -0.237535,-0.05279 -0.237533,-0.05289 -0.327039,-0.0249 -0.327041,-0.0249 -0.421271,0.02606 c -0.231699,0.01433 -0.557771,0.04269 -0.724606,0.06289 l -0.303336,0.03683 -0.206732,7.88e-4 -0.206732,7.79e-4 -0.03008,0.145356 c -0.01655,0.0799 -0.06252,0.269865 -0.102161,0.422067 -0.03965,0.152183 -0.0684,0.280384 -0.06391,0.284875 0.0045,0.0048 0.115055,-0.02058 0.245697,-0.05577 0.130643,-0.03519 0.408158,-0.09298 0.616702,-0.12851 l 0.379171,-0.06461 0.341253,-0.01404 0.341254,-0.01404 0.219814,0.03856 0.219812,0.03856 0.14672,0.0724 0.146718,0.0724 0.08215,0.122452 0.08215,0.122442 -0.0012,0.193048 -0.0012,0.1930478 -0.04355,0.211846 -0.04355,0.211847 -0.909543,0.0029 -0.909539,0.0029 -0.29768,0.08163 c -0.163726,0.0449 -0.34502,0.1045 -0.402879,0.132452 -0.05786,0.02798 -0.115731,0.05087 -0.128608,0.05087 -0.01288,0 -0.110273,0.05404 -0.216435,0.120009 l -0.193023,0.12002 -0.152018,0.151721 c -0.08361,0.08346 -0.190427,0.208596 -0.237374,0.278115 -0.04694,0.06952 -0.123217,0.214731 -0.169494,0.322712 l -0.08414,0.196317 -0.03862,0.220769 -0.03862,0.22077 v 0.231596 0.231596 l 0.03689,0.192827 0.0369,0.192827 0.06845,0.125769 c 0.03765,0.06914 0.106737,0.17049 0.153532,0.225164 l 0.08508,0.0994 0.151193,0.09183 0.151191,0.09183 0.173058,0.04894 c 0.09518,0.02692 0.240053,0.05952 0.321934,0.0725 l 0.148872,0.02346 0.341254,-0.0098 z m 0.315976,-0.706836 -0.202225,0.01058 -0.133935,-0.03413 c -0.07366,-0.01875 -0.185443,-0.06058 -0.248396,-0.09298 l -0.114458,-0.05885 -0.06247,-0.07423 c -0.03436,-0.04087 -0.08685,-0.121067 -0.116638,-0.178298 l -0.05416,-0.104048 -0.01062,-0.243 -0.01062,-0.243 0.04285,-0.147394 c 0.02357,-0.08106 0.07886,-0.221741 0.122873,-0.312606 l 0.08002,-0.165212 0.153238,-0.152182 0.153239,-0.152183 0.162737,-0.07837 0.162738,-0.07836 0.202224,-0.04808 0.202225,-0.04808 h 0.631951 0.631952 l 0.03998,0.01654 0.03998,0.01654 -0.03364,0.198327 c -0.01851,0.109087 -0.06264,0.306394 -0.09809,0.438471 -0.03544,0.132077 -0.09801,0.326241 -0.139042,0.431462 -0.04103,0.105221 -0.0746,0.19825 -0.0746,0.206731 0,0.0087 -0.04154,0.08519 -0.09232,0.170384 l -0.09231,0.154971 -0.151585,0.150183 c -0.08337,0.0826 -0.160764,0.150173 -0.171982,0.150173 -0.01122,0 -0.06233,0.02846 -0.113562,0.06317 l -0.09316,0.06327 -0.204975,0.06481 -0.204977,0.06481 z m 8.228009,0.715875 0.240141,0.0029 0.227503,-0.03692 c 0.125126,-0.02029 0.284378,-0.05308 0.353892,-0.07269 0.06952,-0.01971 0.194642,-0.07077 0.278059,-0.113481 l 0.151669,-0.07769 0.130475,-0.114846 0.130475,-0.114847 0.137415,-0.183259 c 0.07558,-0.100789 0.144016,-0.200318 0.152087,-0.221173 l 0.01467,-0.03789 -0.01276,0.126385 c -0.007,0.06952 -0.02276,0.183269 -0.03497,0.252788 -0.01221,0.06952 -0.02973,0.203164 -0.03892,0.29701 l -0.01671,0.170625 h 0.495867 0.495867 v -0.170625 -0.170625 l 0.07555,-0.644587 c 0.04155,-0.354529 0.102996,-0.826596 0.136542,-1.049038 0.03355,-0.222452 0.08533,-0.540952 0.115068,-0.707789 0.02974,-0.166836 0.08241,-0.468279 0.117046,-0.669865 0.03463,-0.201597 0.09719,-0.554222 0.139019,-0.7836248 0.04183,-0.229395 0.108771,-0.593404 0.148761,-0.808895 0.03999,-0.2155 0.102149,-0.551067 0.138124,-0.745702 0.03598,-0.194644 0.100435,-0.535894 0.143236,-0.758346 0.0428,-0.222442 0.105329,-0.53526 0.138943,-0.695144 0.03362,-0.159885 0.06108,-0.299231 0.06102,-0.309654 v -0.01894 h -0.541007 -0.540996 l -0.01598,0.15799 c -0.0088,0.08692 -0.0502,0.374115 -0.09203,0.638269 -0.04183,0.264154 -0.110022,0.685029 -0.151537,0.935289 -0.04151,0.25025 -0.08154,0.492922 -0.08894,0.53927 l -0.01345,0.08423 -0.04269,-0.01817 c -0.02348,-0.01 -0.150759,-0.04529 -0.282837,-0.07846 l -0.240141,-0.06029 -0.328615,-0.02558 -0.328615,-0.02558 -0.278059,0.02587 -0.278058,0.02596 -0.252781,0.06385 -0.25278,0.06394 -0.240142,0.117125 -0.240142,0.117125 -0.176946,0.131009 -0.176946,0.131 -0.152813,0.163846 c -0.08405,0.0901 -0.205466,0.239164 -0.269819,0.331221 l -0.117006,0.167375 -0.137402,0.2859138 c -0.07557,0.15725 -0.167533,0.365538 -0.204363,0.462865 -0.03683,0.09732 -0.101785,0.313048 -0.144346,0.479404 l -0.07737,0.302452 -0.03813,0.392692 -0.03813,0.392693 0.02862,0.315971 0.02863,0.315981 0.03385,0.11375 c 0.01861,0.0626 0.05786,0.174029 0.08721,0.247702 l 0.05337,0.133952 0.09731,0.131721 0.09731,0.131731 0.111109,0.09106 0.111113,0.09106 0.151668,0.07529 c 0.08341,0.04144 0.223352,0.0949 0.310966,0.118952 0.08761,0.02404 0.229802,0.05279 0.315976,0.06404 0.08617,0.01125 0.264742,0.02173 0.39682,0.02346 z m 0.431006,-0.717183 -0.190865,0.0101 -0.128824,-0.02317 c -0.07086,-0.01279 -0.184235,-0.04692 -0.251954,-0.07596 l -0.12313,-0.05279 -0.103607,-0.0849 -0.103607,-0.0849 -0.07699,-0.147471 -0.077,-0.147462 -0.03509,-0.164307 -0.03509,-0.164308 0.003,-0.328615 0.003,-0.328616 0.04075,-0.290692 0.04075,-0.290702 0.06334,-0.202221 c 0.03483,-0.111231 0.0635,-0.216164 0.06371,-0.233193 2.53e-4,-0.01702 0.03461,-0.108028 0.07642,-0.20223 0.04183,-0.09423 0.111706,-0.23951 0.155291,-0.322923 0.04358,-0.08346 0.125046,-0.213462 0.181028,-0.288981 0.05598,-0.07548 0.155714,-0.1892788 0.221624,-0.2527788 0.06591,-0.06356 0.170758,-0.146808 0.232993,-0.185106 l 0.113157,-0.06962 0.198756,-0.06875 0.198759,-0.06875 0.417088,-2.5e-4 h 0.417088 l 0.240141,0.06663 c 0.132078,0.03664 0.272316,0.07914 0.311636,0.09442 l 0.0715,0.02779 -0.01396,0.06942 c -0.0077,0.03817 -0.03772,0.205885 -0.06676,0.372721 -0.02904,0.1668368 -0.08626,0.4853368 -0.127159,0.7077888 -0.0409,0.222442 -0.103736,0.558009 -0.139641,0.745702 -0.0359,0.187692 -0.0879,0.426567 -0.115566,0.530836 -0.02766,0.104269 -0.06668,0.248702 -0.08671,0.320952 -0.02003,0.07221 -0.06774,0.197375 -0.106009,0.278058 -0.03827,0.08067 -0.10524,0.197885 -0.148819,0.260442 -0.04358,0.0626 -0.117288,0.149231 -0.1638,0.192596 -0.04651,0.04337 -0.147131,0.120414 -0.223597,0.171231 l -0.139029,0.0924 -0.200945,0.06375 -0.200946,0.06375 -0.190865,0.0101 z M 4.9770024,14.020034 h 0.614192 l 0.04407,-0.271731 c 0.02423,-0.149461 0.07157,-0.436683 0.105187,-0.638279 0.03362,-0.201586 0.09619,-0.576971 0.139042,-0.834173 0.04286,-0.257202 0.107098,-0.638269 0.142763,-0.846817 0.03566,-0.208539 0.09233,-0.532039 0.125922,-0.718885 0.0336,-0.186846 0.06745,-0.346106 0.07525,-0.353894 l 0.01416,-0.01413 h 1.651499 1.6515 l 0.01834,0.01837 0.01834,0.01836 -0.02864,0.145971 c -0.01575,0.08029 -0.06235,0.327981 -0.103532,0.550433 -0.04119,0.222442 -0.110443,0.597817 -0.153888,0.834173 -0.04344,0.236346 -0.106266,0.571913 -0.139601,0.745702 -0.03334,0.173788 -0.100796,0.537788 -0.149908,0.808894 -0.04912,0.271106 -0.08919,0.507145 -0.08907,0.52452 l 2.52e-4,0.03163 h 0.616717 0.6167196 l 0.02729,-0.157981 c 0.01501,-0.08692 0.03915,-0.243307 0.05366,-0.347577 0.0145,-0.104269 0.04947,-0.326086 0.07771,-0.492923 0.02824,-0.166836 0.08464,-0.496711 0.125361,-0.733057 0.04071,-0.236356 0.10886,-0.640174 0.151438,-0.897376 0.04258,-0.257201 0.10574,-0.632586 0.140362,-0.834173 0.03463,-0.201596 0.09632,-0.542846 0.137097,-0.7583458 0.04078,-0.21549 0.108706,-0.5795 0.150947,-0.808894 0.04224,-0.229404 0.105523,-0.576346 0.140627,-0.770981 0.03511,-0.194644 0.09911,-0.547269 0.142237,-0.783625 0.04312,-0.236346 0.09758,-0.512193 0.121016,-0.612991 l 0.04261,-0.183269 h -0.624436 -0.624431 l -0.01698,0.120077 c -0.0093,0.06606 -0.03951,0.250885 -0.06704,0.410769 -0.02753,0.159885 -0.07761,0.44426 -0.111279,0.631952 -0.03367,0.187683 -0.09521,0.546001 -0.1367553,0.796259 -0.04154,0.250251 -0.09448,0.58152 -0.1176423,0.736165 l -0.04212,0.281163 -0.91664,0.01856 -0.916643,0.01856 -0.767775,-0.01817 c -0.422278,-0.01 -0.770117,-0.02019 -0.772978,-0.02269 -0.0029,-0.0029 0.01152,-0.100663 0.03196,-0.218288 0.02044,-0.117635 0.05911,-0.321943 0.08593,-0.454019 0.02683,-0.132077 0.07767,-0.393703 0.112993,-0.581395 0.03532,-0.187692 0.07534,-0.420885 0.08891,-0.518202 0.01358,-0.09732 0.04204,-0.259413 0.06325,-0.360212 0.0212,-0.100798 0.06144,-0.313115 0.08942,-0.471817 0.02798,-0.158702 0.05779,-0.306577 0.06625,-0.328615 l 0.01538,-0.0401 h -0.61939 -0.619392 l -0.03967,0.221182 c -0.02183,0.121654 -0.05091,0.295125 -0.06465,0.385491 -0.01374,0.09039 -0.05987,0.380442 -0.102523,0.644596 -0.04264,0.264154 -0.105606,0.656596 -0.139905,0.872096 -0.03431,0.215491 -0.09677,0.607933 -0.138815,0.872087 -0.04205,0.264154 -0.111421,0.6736628 -0.154166,0.9100088 -0.04274,0.236356 -0.104631,0.571924 -0.137523,0.745702 -0.03289,0.173789 -0.09558,0.503674 -0.139297,0.733068 -0.04372,0.229394 -0.1075,0.553586 -0.141734,0.720423 -0.03424,0.166837 -0.07209,0.360212 -0.08411,0.429731 -0.01202,0.06952 -0.05115,0.270009 -0.08694,0.445538 -0.0358,0.175529 -0.06509,0.337625 -0.06509,0.360212 v 0.04106 h 0.614191 z m 6.7992686,0 h 0.543722 l 0.01535,-0.04 c 0.0085,-0.02202 0.01535,-0.07971 0.01535,-0.128192 0,-0.04846 0.03419,-0.300673 0.07598,-0.560366 0.04179,-0.259692 0.110835,-0.682606 0.153436,-0.939808 0.04261,-0.257202 0.105517,-0.632586 0.139811,-0.834173 0.0343,-0.201596 0.09528,-0.537163 0.135531,-0.745702 0.04025,-0.208548 0.102032,-0.53274 0.1373,-0.720433 0.03527,-0.1876818 0.104621,-0.5447688 0.154119,-0.7935188 0.0495,-0.24874 0.09617,-0.46225 0.103715,-0.474461 l 0.01372,-0.02221 -0.549846,0.0067 -0.549846,0.0067 -0.0458,0.328615 c -0.02518,0.18074 -0.08025,0.539058 -0.122366,0.79626 -0.04212,0.2572018 -0.10582,0.6496438 -0.141564,0.8720958 -0.03574,0.222442 -0.09808,0.58076 -0.138524,0.79625 -0.04044,0.2155 -0.102421,0.545375 -0.137728,0.733067 -0.03531,0.187693 -0.09866,0.517568 -0.140785,0.733068 -0.04213,0.21549 -0.09865,0.499875 -0.125613,0.631952 -0.02696,0.132077 -0.05592,0.265731 -0.06435,0.297009 l -0.01533,0.05683 z m 12.716732,0 h 0.539693 l 0.01621,-0.228356 c 0.0089,-0.125596 0.03946,-0.378692 0.06787,-0.562433 0.02841,-0.18375 0.08659,-0.550211 0.129279,-0.814365 0.04269,-0.264154 0.122032,-0.703837 0.176312,-0.977067 0.05428,-0.273231 0.11564,-0.544818 0.136355,-0.603529 0.02071,-0.05875 0.03766,-0.122337 0.03766,-0.141385 0,-0.01904 0.04058,-0.122837 0.09017,-0.230644 0.0496,-0.107808 0.142017,-0.272885 0.205386,-0.366837 l 0.115216,-0.1708358 0.154228,-0.142789 0.154226,-0.142788 0.190183,-0.09087 0.190185,-0.09086 0.290697,0.0019 0.290698,0.0019 0.142919,0.04269 c 0.07861,0.02346 0.149702,0.04269 0.157988,0.04269 0.0083,0 0.01507,-0.02683 0.01507,-0.05971 0,-0.03288 0.02844,-0.199346 0.06319,-0.37 0.03476,-0.170663 0.06319,-0.31749 0.06319,-0.326288 0,-0.0086 -0.08247,-0.04106 -0.183266,-0.07173 -0.100796,-0.03067 -0.240141,-0.06279 -0.309657,-0.07135 l -0.12639,-0.01558 -0.164307,0.02904 c -0.09036,0.01596 -0.224742,0.05125 -0.298607,0.07836 -0.07387,0.02712 -0.195822,0.08875 -0.271019,0.136807 -0.07519,0.04808 -0.192169,0.141847 -0.259936,0.208308 -0.06777,0.06644 -0.181752,0.200471 -0.253299,0.297789 -0.07155,0.09733 -0.146373,0.199701 -0.166279,0.2275 l -0.03619,0.05058 0.02197,-0.101105 c 0.01209,-0.05558 0.04575,-0.237616 0.07481,-0.404452 0.02906,-0.166837 0.05889,-0.323241 0.06628,-0.347577 l 0.01344,-0.04423 H 25.34529 24.863303 v 0.06096 c 0,0.03356 -0.02844,0.235423 -0.06321,0.448682 -0.03477,0.21327 -0.09211,0.56975 -0.127409,0.7922018 -0.03531,0.222443 -0.09796,0.609202 -0.139245,0.859452 -0.04128,0.25025 -0.103957,0.608568 -0.139284,0.79626 -0.03533,0.187692 -0.09806,0.517567 -0.1394,0.733067 -0.04135,0.215491 -0.109985,0.568125 -0.152539,0.783616 -0.04256,0.2155 -0.09347,0.46999 -0.113143,0.565538 -0.01967,0.09558 -0.03578,0.183712 -0.03578,0.195904 v 0.02221 h 0.539693 z m 12.811415,0 h 0.551825 v -0.168875 -0.168875 l 0.06359,-0.418837 c 0.03498,-0.230365 0.09267,-0.595154 0.128226,-0.810644 0.03555,-0.2155 0.07986,-0.4885 0.09846,-0.606673 0.01861,-0.118183 0.06791,-0.374116 0.109576,-0.56876 0.04166,-0.194644 0.09369,-0.405086 0.115637,-0.467644 0.02194,-0.0626 0.04006,-0.128202 0.04026,-0.145865 2.53e-4,-0.01769 0.04724,-0.131241 0.104533,-0.252404 l 0.104166,-0.220289 0.137419,-0.182586 0.137419,-0.1825868 0.150394,-0.113048 c 0.08272,-0.06221 0.215728,-0.144702 0.295577,-0.183375 l 0.145179,-0.07029 0.315976,0.0019 0.315976,0.0019 0.124386,0.0399 0.124385,0.0399 0.02096,-0.01298 0.02096,-0.01298 0.0011,-0.08067 c 5.81e-4,-0.04433 0.02763,-0.209443 0.06012,-0.366837 l 0.05908,-0.286163 -0.06645,-0.02606 c -0.03655,-0.01433 -0.123321,-0.04394 -0.192836,-0.06577 l -0.12639,-0.03981 -0.227503,5.86e-4 -0.227502,5.77e-4 -0.185405,0.06519 -0.185404,0.06519 -0.139211,0.08394 -0.139212,0.08394 -0.180991,0.189587 -0.180988,0.189586 -0.09724,0.147067 c -0.05348,0.08087 -0.100572,0.143452 -0.104639,0.139029 -0.004,-0.0048 0.025,-0.172981 0.0646,-0.374567 0.0396,-0.201596 0.07249,-0.392125 0.07309,-0.423413 l 0.0011,-0.05683 H 38.146904 37.67926 v 0.01615 c 0,0.0087 -0.02332,0.170952 -0.05181,0.360211 -0.02849,0.189259 -0.08571,0.554538 -0.127139,0.81175 -0.04143,0.2572018 -0.109416,0.6723938 -0.151072,0.9226438 -0.04165,0.25026 -0.104456,0.608567 -0.139553,0.79626 -0.0351,0.187692 -0.09743,0.517567 -0.138521,0.733067 -0.04109,0.215491 -0.108605,0.562433 -0.150032,0.770981 -0.04142,0.208538 -0.09631,0.484385 -0.121951,0.61299 l -0.04662,0.233827 h 0.551827 z m -24.459,-6.1683948 0.153484,5.48e-4 0.122,-0.04154 0.122,-0.04154 0.107975,-0.109529 0.107975,-0.109519 0.05687,-0.145923 0.05687,-0.145923 0.002,-0.214866 0.002,-0.214865 -0.05056,-0.08394 -0.05056,-0.08394 -0.08802,-0.05452 -0.08802,-0.05452 h -0.19004 -0.19004 l -0.12938,0.05789 -0.129379,0.05788 -0.07511,0.08048 -0.07511,0.08048 -0.05898,0.139029 -0.05898,0.139029 -0.01114,0.216567 -0.01114,0.216558 0.05491,0.107634 0.05491,0.107635 0.105948,0.04808 0.105949,0.04808 0.153485,5.58e-4 z"
       style="fill:#b3131b;stroke-width:0.02527806" />
  </g>
</svg>
