<?xml version="1.0" encoding="UTF-8" standalone="no"?>
<svg
   version="1.1"
   width="32"
   height="32"
   id="svg1901"
   sodipodi:docname="pagseguro.svg"
   inkscape:version="1.1 (c68e22c387, 2021-05-23)"
   xmlns:inkscape="http://www.inkscape.org/namespaces/inkscape"
   xmlns:sodipodi="http://sodipodi.sourceforge.net/DTD/sodipodi-0.dtd"
   xmlns="http://www.w3.org/2000/svg"
   xmlns:svg="http://www.w3.org/2000/svg">
  <defs
     id="defs1905" />
  <sodipodi:namedview
     id="namedview1903"
     pagecolor="#ffffff"
     bordercolor="#999999"
     borderopacity="1"
     inkscape:pageshadow="0"
     inkscape:pageopacity="0"
     inkscape:pagecheckerboard="0"
     showgrid="false"
     width="32px"
     inkscape:zoom="10.433333"
     inkscape:cx="9.2971246"
     inkscape:cy="29.616613"
     inkscape:window-width="1440"
     inkscape:window-height="837"
     inkscape:window-x="-8"
     inkscape:window-y="-8"
     inkscape:window-maximized="1"
     inkscape:current-layer="svg1901" />
  <g
     id="Layer1000"
     transform="matrix(0.1065522,0,0,0.10583344,-6.6850388,-7.0336761)">
    <path
       d="M 198.7346,71.6413 C 99.1285,83.096 41.3877,188.4979 88.3968,280.2328 c 24.01,46.8537 79.5262,79.3636 138.546,73.4441 71.7765,-7.1991 134.168,-72.6264 125.6,-154.4469 -2.203,-21.0388 -7.8219,-37.1679 -16.5293,-53.6149 -4.2546,-8.0359 -9.0956,-14.5589 -14.0448,-21.0859 C 297.967,92.8752 247.0162,66.0889 198.7346,71.6413 Z"
       style="fill:#040607;fill-rule:evenodd"
       id="path1892" />
    <path
       d="m 257.3663,314.2212 c -2.6986,-2.3258 -12.8229,-5.9562 -17.6031,-9.6754 -44.4071,-34.5474 -29.4534,-95.5947 13.2966,-112.65 l 10.3401,-3.9609 c -6.1254,-9.8172 -25.4707,-23.2144 -41.8504,-28.5348 -55.7302,-18.1023 -117.3199,20.3037 -121.3909,81.855 -2.8991,43.8292 23.778,76.6511 51.2455,89.9543 35.3711,17.1309 82.4506,10.1151 105.9622,-16.9882 z"
       style="fill:#a7dbda;fill-rule:evenodd"
       id="path1894" />
    <path
       d="m 100.1755,204.2796 c 0.8476,-0.8034 9.8471,-16.204 17.5465,-25.2153 5.5982,-6.5517 14.4327,-13.5807 23.6647,-19.0492 34.8529,-20.645 81.1624,-18.5351 113.7973,7.5681 2.1338,1.7068 3.9154,2.7368 5.7782,4.6543 l 10.4674,11.389 c 6.4097,8.6754 20.546,-2.695 46.2786,17.328 3.3383,2.5976 2.8049,3.6607 6.6123,5.1761 6.6627,-69.6167 -44.8474,-125.3943 -110.3854,-126.4085 -31.3477,-0.485 -64.4129,13.8034 -83.3894,35.2892 -19.8623,22.489 -32.809,47.4836 -30.3702,89.2683 z"
       style="fill:#dde461;fill-rule:evenodd"
       id="path1896" />
    <path
       d="m 267.0564,197.0103 c -26.9018,5.6966 -50.5573,30.9692 -44.4122,64.8327 4.9457,27.2541 31.7641,51.7529 65.9083,45.0727 26.4954,-5.1833 50.0403,-31.5261 44.1207,-64.9837 -4.8305,-27.3042 -32.3516,-51.9663 -65.6168,-44.9217 z"
       style="fill:#f4e13d;fill-rule:evenodd"
       id="path1898" />
  </g>
</svg>
