<?xml version="1.0" encoding="UTF-8" standalone="no"?>
<svg
   viewBox="0 0 32 32"
   version="1.1"
   id="svg1120"
   sodipodi:docname="pix.svg"
   width="32"
   height="32"
   inkscape:version="1.1 (c68e22c387, 2021-05-23)"
   xmlns:inkscape="http://www.inkscape.org/namespaces/inkscape"
   xmlns:sodipodi="http://sodipodi.sourceforge.net/DTD/sodipodi-0.dtd"
   xmlns="http://www.w3.org/2000/svg"
   xmlns:svg="http://www.w3.org/2000/svg">
  <defs
     id="defs1124" />
  <sodipodi:namedview
     id="namedview1122"
     pagecolor="#ffffff"
     bordercolor="#999999"
     borderopacity="1"
     inkscape:pageshadow="0"
     inkscape:pageopacity="0"
     inkscape:pagecheckerboard="0"
     showgrid="false"
     scale-x="1"
     inkscape:zoom="14.783806"
     inkscape:cx="9.4021797"
     inkscape:cy="10.755011"
     inkscape:window-width="1440"
     inkscape:window-height="837"
     inkscape:window-x="-8"
     inkscape:window-y="-8"
     inkscape:window-maximized="1"
     inkscape:current-layer="svg1120" />
  <path
     d="m 24.527799,23.965512 a 4.3543558,4.3543558 0 0 1 -3.098237,-1.278803 l -4.475336,-4.478172 a 0.85064475,0.85064475 0 0 0 -1.17578,0 l -4.490459,4.490459 A 4.356246,4.356246 0 0 1 8.1897493,23.981579 H 7.3135854 l 5.6709656,5.670966 a 4.5367717,4.5367717 0 0 0 6.409135,0 l 5.682306,-5.683253 z"
     fill="#32bcad"
     id="path1072"
     style="fill:#32bcad;fill-opacity:1;stroke-width:0.0945156"
     inkscape:export-filename="E:\Users\vikto\Downloads\SITE\assets\images\pix.png"
     inkscape:export-xdpi="96"
     inkscape:export-ydpi="96" />
  <path
     d="M 8.1906944,8.1397391 A 4.3553009,4.3553009 0 0 1 11.288932,9.422323 l 4.490459,4.491404 a 0.83268668,0.83268668 0 0 0 1.17578,0 L 21.429562,9.4393359 A 4.3477396,4.3477396 0 0 1 24.527799,8.155807 h 0.538742 L 19.384235,2.4735003 a 4.531101,4.531101 0 0 0 -6.409136,0 L 7.3135854,8.1397391 Z"
     fill="#32bcad"
     id="path1074"
     style="fill:#32bcad;fill-opacity:1;stroke-width:0.0945156"
     inkscape:export-filename="E:\Users\vikto\Downloads\SITE\assets\images\pix.png"
     inkscape:export-xdpi="96"
     inkscape:export-ydpi="96" />
  <path
     d="m 29.766826,12.857037 -3.43377,-3.4337689 a 0.66161255,0.66161255 0 0 1 -0.243851,0.049147 h -1.561406 a 3.0831145,3.0831145 0 0 0 -2.167254,0.8979019 l -4.474391,4.471556 a 2.1492957,2.1492957 0 0 1 -3.036802,0 L 10.357948,10.353306 A 3.0831145,3.0831145 0 0 0 8.1906944,9.4544578 H 6.2739084 A 0.67295448,0.67295448 0 0 1 6.0432891,9.4081456 L 2.5877816,12.857037 a 4.5367717,4.5367717 0 0 0 0,6.409135 l 3.4479463,3.447947 a 0.64743514,0.64743514 0 0 1 0.2306209,-0.04631 H 8.1906944 A 3.0840597,3.0840597 0 0 0 10.357948,21.76896 l 4.490459,-4.490459 c 0.811893,-0.810948 2.226799,-0.810948 3.037747,0 l 4.474391,4.473446 a 3.0831145,3.0831145 0 0 0 2.167254,0.897904 h 1.561406 a 0.65216096,0.65216096 0 0 1 0.243851,0.04915 l 3.43377,-3.433769 a 4.531101,4.531101 0 0 0 0,-6.409136"
     fill="#32bcad"
     id="path1076"
     style="fill:#32bcad;fill-opacity:1;stroke-width:0.0945156"
     inkscape:export-filename="E:\Users\vikto\Downloads\SITE\assets\images\pix.png"
     inkscape:export-xdpi="96"
     inkscape:export-ydpi="96" />
</svg>
